<mxfile host="app.diagrams.net" modified="2022-09-25T21:12:16.566Z" agent="5.0 (Windows NT 10.0; Win64; x64) AppleWebKit/537.36 (KHTML, like Gecko) Chrome/105.0.0.0 Safari/537.36" etag="1d03vSwD-vuZfoGU2BK5" version="20.3.6" type="github">
  <diagram id="lyIxTXlpN-pxsEKOB5fZ" name="Página-1">
    <mxGraphModel dx="868" dy="1619" grid="1" gridSize="10" guides="1" tooltips="1" connect="1" arrows="1" fold="1" page="1" pageScale="1" pageWidth="827" pageHeight="1169" math="0" shadow="0">
      <root>
        <mxCell id="0" />
        <mxCell id="1" parent="0" />
        <mxCell id="PVa6TRu2ovvA86C_9Qb6-26" style="edgeStyle=orthogonalEdgeStyle;rounded=0;orthogonalLoop=1;jettySize=auto;html=1;exitX=0.5;exitY=1;exitDx=0;exitDy=0;entryX=0;entryY=0.5;entryDx=0;entryDy=0;" edge="1" parent="1" source="PVa6TRu2ovvA86C_9Qb6-3" target="PVa6TRu2ovvA86C_9Qb6-5">
          <mxGeometry relative="1" as="geometry" />
        </mxCell>
        <mxCell id="PVa6TRu2ovvA86C_9Qb6-3" value="&lt;b&gt;&lt;u&gt;PESSOA&lt;/u&gt;&lt;/b&gt;" style="rounded=0;whiteSpace=wrap;html=1;" vertex="1" parent="1">
          <mxGeometry x="130" y="-260" width="80" height="30" as="geometry" />
        </mxCell>
        <mxCell id="PVa6TRu2ovvA86C_9Qb6-25" style="edgeStyle=orthogonalEdgeStyle;rounded=0;orthogonalLoop=1;jettySize=auto;html=1;exitX=0.5;exitY=1;exitDx=0;exitDy=0;entryX=0.5;entryY=0;entryDx=0;entryDy=0;" edge="1" parent="1" source="PVa6TRu2ovvA86C_9Qb6-4" target="PVa6TRu2ovvA86C_9Qb6-5">
          <mxGeometry relative="1" as="geometry" />
        </mxCell>
        <mxCell id="PVa6TRu2ovvA86C_9Qb6-4" value="&lt;b&gt;&lt;u&gt;BANCO&lt;/u&gt;&lt;/b&gt;" style="rounded=0;whiteSpace=wrap;html=1;" vertex="1" parent="1">
          <mxGeometry x="400" y="-270" width="90" height="30" as="geometry" />
        </mxCell>
        <mxCell id="PVa6TRu2ovvA86C_9Qb6-29" style="edgeStyle=orthogonalEdgeStyle;rounded=0;orthogonalLoop=1;jettySize=auto;html=1;exitX=0.5;exitY=1;exitDx=0;exitDy=0;entryX=0.5;entryY=0;entryDx=0;entryDy=0;" edge="1" parent="1" source="PVa6TRu2ovvA86C_9Qb6-5" target="PVa6TRu2ovvA86C_9Qb6-28">
          <mxGeometry relative="1" as="geometry" />
        </mxCell>
        <mxCell id="PVa6TRu2ovvA86C_9Qb6-5" value="" style="ellipse;whiteSpace=wrap;html=1;aspect=fixed;" vertex="1" parent="1">
          <mxGeometry x="420" y="-190" width="50" height="50" as="geometry" />
        </mxCell>
        <mxCell id="PVa6TRu2ovvA86C_9Qb6-27" style="edgeStyle=orthogonalEdgeStyle;rounded=0;orthogonalLoop=1;jettySize=auto;html=1;exitX=0.5;exitY=1;exitDx=0;exitDy=0;entryX=1;entryY=0.5;entryDx=0;entryDy=0;" edge="1" parent="1" source="PVa6TRu2ovvA86C_9Qb6-6" target="PVa6TRu2ovvA86C_9Qb6-5">
          <mxGeometry relative="1" as="geometry" />
        </mxCell>
        <mxCell id="PVa6TRu2ovvA86C_9Qb6-6" value="&lt;b&gt;&lt;u&gt;COMPANIA&lt;/u&gt;&lt;/b&gt;" style="rounded=0;whiteSpace=wrap;html=1;" vertex="1" parent="1">
          <mxGeometry x="670" y="-260" width="105" height="30" as="geometry" />
        </mxCell>
        <mxCell id="PVa6TRu2ovvA86C_9Qb6-14" style="edgeStyle=orthogonalEdgeStyle;rounded=0;orthogonalLoop=1;jettySize=auto;html=1;exitX=1;exitY=0.5;exitDx=0;exitDy=0;entryX=0.4;entryY=0.067;entryDx=0;entryDy=0;entryPerimeter=0;" edge="1" parent="1" source="PVa6TRu2ovvA86C_9Qb6-8" target="PVa6TRu2ovvA86C_9Qb6-3">
          <mxGeometry relative="1" as="geometry" />
        </mxCell>
        <mxCell id="PVa6TRu2ovvA86C_9Qb6-8" value="CPF" style="ellipse;shape=doubleEllipse;margin=3;whiteSpace=wrap;html=1;align=center;" vertex="1" parent="1">
          <mxGeometry x="20" y="-380" width="100" height="30" as="geometry" />
        </mxCell>
        <mxCell id="PVa6TRu2ovvA86C_9Qb6-13" style="edgeStyle=orthogonalEdgeStyle;rounded=0;orthogonalLoop=1;jettySize=auto;html=1;exitX=0;exitY=0.5;exitDx=0;exitDy=0;entryX=0.75;entryY=0;entryDx=0;entryDy=0;" edge="1" parent="1" source="PVa6TRu2ovvA86C_9Qb6-9" target="PVa6TRu2ovvA86C_9Qb6-3">
          <mxGeometry relative="1" as="geometry" />
        </mxCell>
        <mxCell id="PVa6TRu2ovvA86C_9Qb6-9" value="Licença" style="ellipse;shape=doubleEllipse;margin=3;whiteSpace=wrap;html=1;align=center;" vertex="1" parent="1">
          <mxGeometry x="230" y="-380" width="100" height="30" as="geometry" />
        </mxCell>
        <mxCell id="PVa6TRu2ovvA86C_9Qb6-15" style="edgeStyle=orthogonalEdgeStyle;rounded=0;orthogonalLoop=1;jettySize=auto;html=1;exitX=0.5;exitY=1;exitDx=0;exitDy=0;entryX=0;entryY=0.75;entryDx=0;entryDy=0;" edge="1" parent="1" source="PVa6TRu2ovvA86C_9Qb6-10" target="PVa6TRu2ovvA86C_9Qb6-3">
          <mxGeometry relative="1" as="geometry" />
        </mxCell>
        <mxCell id="PVa6TRu2ovvA86C_9Qb6-10" value="Nome" style="ellipse;shape=doubleEllipse;margin=3;whiteSpace=wrap;html=1;align=center;" vertex="1" parent="1">
          <mxGeometry x="10" y="-330" width="100" height="30" as="geometry" />
        </mxCell>
        <mxCell id="PVa6TRu2ovvA86C_9Qb6-12" style="edgeStyle=orthogonalEdgeStyle;rounded=0;orthogonalLoop=1;jettySize=auto;html=1;exitX=0.5;exitY=1;exitDx=0;exitDy=0;entryX=1;entryY=0.75;entryDx=0;entryDy=0;" edge="1" parent="1" source="PVa6TRu2ovvA86C_9Qb6-11" target="PVa6TRu2ovvA86C_9Qb6-3">
          <mxGeometry relative="1" as="geometry" />
        </mxCell>
        <mxCell id="PVa6TRu2ovvA86C_9Qb6-11" value="Endereço" style="ellipse;shape=doubleEllipse;margin=3;whiteSpace=wrap;html=1;align=center;" vertex="1" parent="1">
          <mxGeometry x="230" y="-330" width="110" height="30" as="geometry" />
        </mxCell>
        <mxCell id="PVa6TRu2ovvA86C_9Qb6-22" style="edgeStyle=orthogonalEdgeStyle;rounded=0;orthogonalLoop=1;jettySize=auto;html=1;exitX=0;exitY=0.5;exitDx=0;exitDy=0;entryX=0.344;entryY=-0.1;entryDx=0;entryDy=0;entryPerimeter=0;" edge="1" parent="1" source="PVa6TRu2ovvA86C_9Qb6-17" target="PVa6TRu2ovvA86C_9Qb6-4">
          <mxGeometry relative="1" as="geometry" />
        </mxCell>
        <mxCell id="PVa6TRu2ovvA86C_9Qb6-17" value="BNome" style="ellipse;shape=doubleEllipse;margin=3;whiteSpace=wrap;html=1;align=center;" vertex="1" parent="1">
          <mxGeometry x="475" y="-420" width="100" height="30" as="geometry" />
        </mxCell>
        <mxCell id="PVa6TRu2ovvA86C_9Qb6-21" style="edgeStyle=orthogonalEdgeStyle;rounded=0;orthogonalLoop=1;jettySize=auto;html=1;entryX=0.75;entryY=0;entryDx=0;entryDy=0;" edge="1" parent="1" source="PVa6TRu2ovvA86C_9Qb6-18" target="PVa6TRu2ovvA86C_9Qb6-4">
          <mxGeometry relative="1" as="geometry" />
        </mxCell>
        <mxCell id="PVa6TRu2ovvA86C_9Qb6-18" value="BEndereço" style="ellipse;shape=doubleEllipse;margin=3;whiteSpace=wrap;html=1;align=center;" vertex="1" parent="1">
          <mxGeometry x="470" y="-360" width="110" height="30" as="geometry" />
        </mxCell>
        <mxCell id="PVa6TRu2ovvA86C_9Qb6-24" style="edgeStyle=orthogonalEdgeStyle;rounded=0;orthogonalLoop=1;jettySize=auto;html=1;exitX=0;exitY=0.5;exitDx=0;exitDy=0;entryX=0.25;entryY=0;entryDx=0;entryDy=0;" edge="1" parent="1" source="PVa6TRu2ovvA86C_9Qb6-19" target="PVa6TRu2ovvA86C_9Qb6-6">
          <mxGeometry relative="1" as="geometry" />
        </mxCell>
        <mxCell id="PVa6TRu2ovvA86C_9Qb6-19" value="CNome" style="ellipse;shape=doubleEllipse;margin=3;whiteSpace=wrap;html=1;align=center;" vertex="1" parent="1">
          <mxGeometry x="727" y="-400" width="100" height="30" as="geometry" />
        </mxCell>
        <mxCell id="PVa6TRu2ovvA86C_9Qb6-23" style="edgeStyle=orthogonalEdgeStyle;rounded=0;orthogonalLoop=1;jettySize=auto;html=1;entryX=0.75;entryY=0;entryDx=0;entryDy=0;" edge="1" parent="1" source="PVa6TRu2ovvA86C_9Qb6-20" target="PVa6TRu2ovvA86C_9Qb6-6">
          <mxGeometry relative="1" as="geometry" />
        </mxCell>
        <mxCell id="PVa6TRu2ovvA86C_9Qb6-20" value="CEndereço" style="ellipse;shape=doubleEllipse;margin=3;whiteSpace=wrap;html=1;align=center;" vertex="1" parent="1">
          <mxGeometry x="725" y="-340" width="110" height="30" as="geometry" />
        </mxCell>
        <mxCell id="PVa6TRu2ovvA86C_9Qb6-28" value="&lt;b&gt;&lt;u&gt;OWNER&lt;/u&gt;&lt;/b&gt;" style="rounded=0;whiteSpace=wrap;html=1;" vertex="1" parent="1">
          <mxGeometry x="400" y="-80" width="90" height="30" as="geometry" />
        </mxCell>
      </root>
    </mxGraphModel>
  </diagram>
</mxfile>
